HIERARCHY
ROOT root
{
	OFFSET	0	13.1	24.9
	CHANNELS 6  Xposition Yposition Zposition Xrotation Yrotation Zrotation
	JOINT spine_1
	{
		OFFSET	0	9.99999	0
		CHANNELS 3  Xrotation Yrotation Zrotation
		JOINT spine_2
		{
			OFFSET	0	112	-10
			CHANNELS 3  Xrotation Yrotation Zrotation
			JOINT spine_3
			{
				OFFSET	0	206.5	19.3
				CHANNELS 3  Xrotation Yrotation Zrotation
				JOINT spine_4
				{
					OFFSET	0	110.4	14.6
					CHANNELS 3  Xrotation Yrotation Zrotation
					JOINT neck_1
					{
						OFFSET	0	71.8	-50.3
						CHANNELS 3  Xrotation Yrotation Zrotation
						JOINT neck_2
						{
							OFFSET	0	86.2	-25.8
							CHANNELS 3  Xrotation Yrotation Zrotation
							JOINT head_ee
							{
								OFFSET	0	179.8	-8.7
								CHANNELS 3  Xrotation Yrotation Zrotation
								End Site
								{
									OFFSET	1	0	0
								}
							}
						}
					}
					JOINT left_clavicle
					{
						OFFSET	-43.2	22.4	-70.8
						CHANNELS 3  Xrotation Yrotation Zrotation
						JOINT left_shoulder
						{
							OFFSET	-93.9	-5.79999	48.7
							CHANNELS 3  Xrotation Yrotation Zrotation
							JOINT left_elbow
							{
								OFFSET	-291.4	-30.8	15.2
								CHANNELS 3  Xrotation Yrotation Zrotation
								JOINT left_lowarm_twist
								{
									OFFSET	-110.7	-3.89999	13.6
									CHANNELS 3  Xrotation Yrotation Zrotation
									JOINT left_hand
									{
										OFFSET	-110.7	-3.89999	13.6
										CHANNELS 3  Xrotation Yrotation Zrotation
										JOINT left_ee
										{
											OFFSET	-80.8	-5.10001	12.1
											CHANNELS 3  Xrotation Yrotation Zrotation
											End Site
											{
												OFFSET	1	0	0
											}
										}
									}
								}
							}
						}
					}
					JOINT right_clavicle
					{
						OFFSET	43.2	22.4	-70.8
						CHANNELS 3  Xrotation Yrotation Zrotation
						JOINT right_shoulder
						{
							OFFSET	93.9	-5.79999	48.7
							CHANNELS 3  Xrotation Yrotation Zrotation
							JOINT right_elbow
							{
								OFFSET	291.4	-30.8	15.2
								CHANNELS 3  Xrotation Yrotation Zrotation
								JOINT right_lowarm_twist
								{
									OFFSET	110.7	-3.89999	13.6
									CHANNELS 3  Xrotation Yrotation Zrotation
									JOINT right_hand
									{
										OFFSET	110.7	-3.89999	13.6
										CHANNELS 3  Xrotation Yrotation Zrotation
										JOINT right_ee
										{
											OFFSET	80.8	-5.10001	12.1
											CHANNELS 3  Xrotation Yrotation Zrotation
											End Site
											{
												OFFSET	1	0	0
											}
										}
									}
								}
							}
						}
					}
				}
			}
		}
	}
	JOINT left_hip
	{
		OFFSET	-82.8	-127.5	0.300001
		CHANNELS 3  Xrotation Yrotation Zrotation
		JOINT left_knee
		{
			OFFSET	-28.2	-396.7	2.2
			CHANNELS 3  Xrotation Yrotation Zrotation
			JOINT left_ankle
			{
				OFFSET	-11.7	-411.3	35.4
				CHANNELS 3  Xrotation Yrotation Zrotation
				JOINT left_toes
				{
					OFFSET	0	-60	-88.6
					CHANNELS 3  Xrotation Yrotation Zrotation
					JOINT left_foot_ee
					{
						OFFSET	-22.5	-16.5	-42.2
						CHANNELS 3  Xrotation Yrotation Zrotation
						End Site
						{
							OFFSET	1	0	0
						}
					}
				}
			}
		}
	}
	JOINT right_hip
	{
		OFFSET	82.8	-127.5	0.300001
		CHANNELS 3  Xrotation Yrotation Zrotation
		JOINT right_knee
		{
			OFFSET	28.2	-396.7	2.2
			CHANNELS 3  Xrotation Yrotation Zrotation
			JOINT right_ankle
			{
				OFFSET	11.7	-411.3	35.4
				CHANNELS 3  Xrotation Yrotation Zrotation
				JOINT right_toes
				{
					OFFSET	0	-60	-88.6
					CHANNELS 3  Xrotation Yrotation Zrotation
					JOINT right_foot_ee
					{
						OFFSET	22.5	-16.5	-42.2
						CHANNELS 3  Xrotation Yrotation Zrotation
						End Site
						{
							OFFSET	1	0	0
						}
					}
				}
			}
		}
	}
}
MOTION
Frames: 14
Frame Time: 0.02
3479.12785466 706.807 -1549.64429394 2.50592379578 63.6338484367 -8.78026974575 1.14305 0.89333 2.85265 1.14729 0.710077 2.90365 1.18468 0.146156 2.98557 1.17278 0.615634 2.92512 -9.12097 15.9513 0.188995 -9.34733 29.8318 4.07162 -0.0 0.0 -0.0 -2.19221 18.6295 -1.12558 -23.9792 -18.1677 64.0336 1.68364 -39.8256 0.609932 -39.3434 -2.88161 4.01311 -2.7048 3.42608 -16.6777 -0.0 0.0 -0.0 14.5332 25.9953 -29.2573 -10.573 18.449 -65.2452 0.511732 14.2249 -0.0638528 3.12641 -0.0996152 0.386855 1.45756 -11.8734 -14.2873 0.0 0.0 0.0 15.3798 13.1399 -3.53417 -53.5551 -1.54568 7.77827 22.6815 13.026 -3.07513 -21.3493 0.0 0.0 -0.0 0.0 -0.0 -7.63535 1.89616 5.78177 -6.17524 -0.204551 -0.925187 37.868 20.0892 5.15998 -14.5512 0.0 0.0 0.0 0.0 0.0 
3473.07649532 709.364 -1548.62043619 -0.0883869081852 61.9981788232 -6.35852720773 1.44174 0.955484 2.93675 1.44621 0.766761 2.99153 1.48734 0.201512 3.08157 1.47474 0.685438 3.01118 -10.5569 17.1625 1.05259 -10.9939 31.7292 5.67231 -0.0 0.0 -0.0 -2.90444 19.9387 -1.95018 -25.1686 -17.4334 66.1031 1.53713 -37.2849 0.518596 -38.0641 -2.74767 3.91818 -2.55201 3.12815 -15.7725 -0.0 0.0 -0.0 14.5422 25.6854 -29.3177 -6.47069 19.8039 -65.596 0.669772 18.3552 -0.108212 2.62059 -0.0849335 0.323912 1.53474 -9.89569 -14.0907 0.0 0.0 0.0 19.6323 11.063 -4.835 -51.3924 -1.34559 7.51187 21.7444 14.9595 -2.97339 -22.1764 0.0 0.0 -0.0 0.0 -0.0 -8.75078 1.82667 6.23627 0.671161 0.0282183 0.0991274 34.9391 22.3685 4.9675 -13.3446 0.0 0.0 0.0 0.0 0.0 
3466.78943983 704.349 -1544.91851414 -1.46094733172 65.0273573302 -4.78656636938 1.54495 0.660271 3.00954 1.54987 0.46752 3.04541 1.57542 -0.0982341 3.07949 1.5624 0.389114 3.0564 -10.4501 18.2992 0.143853 -10.9685 34.4648 5.12046 -0.0 0.0 -0.0 -3.07965 20.1865 -2.16008 -26.2066 -17.0392 66.9253 1.46353 -35.9396 0.474701 -37.1822 -2.6566 3.85103 -2.48814 2.99995 -15.3965 -0.0 0.0 -0.0 14.4315 26.1125 -29.0028 -2.76958 20.8797 -66.0369 0.776386 21.0366 -0.144154 2.64292 -0.0855933 0.326687 1.5493 -8.49506 -13.6781 0.0 0.0 0.0 21.7933 10.2974 -5.02277 -50.6261 -1.27713 7.41571 27.1442 15.5796 -3.62095 -22.1357 0.0 0.0 -0.0 0.0 -0.0 -8.5759 1.90568 6.19454 2.07008 0.090764 0.304665 37.618 25.9862 5.42603 -12.219 0.0 0.0 0.0 0.0 0.0 
3466.49142236 704.349 -1544.45938497 -1.47444556078 65.2713506367 -4.77169078646 1.54495 0.660271 3.00954 1.54987 0.46752 3.04541 1.57542 -0.0982341 3.07949 1.5624 0.389114 3.0564 -10.4501 18.2992 0.143853 -10.9685 34.4648 5.12046 -0.0 0.0 -0.0 -3.07965 20.1865 -2.16008 -26.2066 -17.0392 66.9253 1.46353 -35.9396 0.474701 -37.1822 -2.6566 3.85103 -2.48814 2.99995 -15.3965 -0.0 0.0 -0.0 14.4315 26.1125 -29.0028 -2.76958 20.8797 -66.0369 0.776386 21.0366 -0.144154 2.64292 -0.0855933 0.326687 1.5493 -8.49506 -13.6781 0.0 0.0 0.0 21.7933 10.2974 -5.02277 -50.6261 -1.27713 7.41571 27.1442 15.5796 -3.62095 -22.1357 0.0 0.0 -0.0 0.0 -0.0 -8.5759 1.90568 6.19454 2.07008 0.090764 0.304665 37.618 25.9862 5.42603 -12.219 0.0 0.0 0.0 0.0 0.0 
3460.08686698 703.04 -1538.29309616 -2.27827392093 66.3461244457 -3.89152499283 1.75889 0.609339 2.87003 1.76337 0.425556 2.90295 1.78527 -0.102682 2.93215 1.77346 0.361484 2.91161 -10.7272 18.8436 0.716628 -11.3148 35.1597 5.9347 -0.0 0.0 -0.0 -3.27456 20.7156 -2.33889 -27.7478 -16.9481 68.3483 1.36009 -33.9683 0.415427 -36.6528 -2.60243 3.81005 -2.05597 2.78836 -12.5465 -0.0 0.0 -0.0 14.673 26.4404 -29.5301 1.64339 22.1084 -66.0791 0.761376 20.6646 -0.138811 2.31556 -0.0758111 0.286017 1.45024 -7.59361 -12.6838 0.0 0.0 0.0 24.593 9.65883 -4.92425 -49.1468 -1.14868 7.2276 25.8704 15.1586 -3.46966 -22.095 0.0 0.0 -0.0 0.0 -0.0 -9.86378 1.52011 6.42089 5.96653 0.291265 0.868586 36.8469 28.1933 5.47935 -11.1519 0.0 0.0 0.0 0.0 0.0 
3450.28170919 702.465 -1532.41243021 -2.81785636376 67.6105883499 -3.28644776427 1.76635 0.680324 2.81484 1.77062 0.499905 2.85238 1.7959 -0.0198229 2.89575 1.78446 0.437565 2.8626 -10.4503 19.275 0.104872 -11.041 36.3396 5.39036 -0.0 0.0 -0.0 -3.38127 20.5683 -2.52528 -28.7781 -17.7584 69.7362 1.16861 -30.0653 0.313851 -37.0647 -2.64454 3.84197 -1.65381 2.50372 -9.96112 -0.0 0.0 -0.0 14.7351 26.9246 -29.6119 5.96816 23.073 -67.123 0.665153 18.237 -0.106762 2.36316 -0.0772481 0.291928 0.99706 -8.28456 -9.94356 0.0 0.0 0.0 24.7405 7.71946 -5.43609 -45.9046 -0.884482 6.80425 25.3461 15.7442 -3.4137 -22.8712 0.0 0.0 -0.0 0.0 -0.0 -7.808 0.720449 7.10721 1.11442 0.047492 0.164414 36.5539 26.9689 5.37456 -8.44597 0.0 0.0 0.0 0.0 0.0 
3439.6326865 698.344 -1528.79073086 -3.02616161462 69.7152152325 -3.09988256471 1.84586 0.630564 2.87024 1.85033 0.446724 2.90451 1.87322 -0.0775989 2.93761 1.86139 0.387115 2.91305 -10.8545 19.308 0.524692 -11.5069 36.1824 5.95126 -0.0 0.0 -0.0 -3.70279 21.0115 -2.90005 -30.2004 -17.0044 70.8455 1.10066 -28.6 0.280563 -37.3637 -2.67526 3.86496 -1.60199 2.90464 -9.42747 -0.0 0.0 -0.0 14.6838 27.2344 -29.4482 10.7715 23.8582 -67.4789 0.635843 17.4834 -0.0977721 2.89708 -0.0930278 0.358302 0.983562 -4.80253 -8.50646 0.0 0.0 0.0 25.7287 6.81662 -6.22935 -40.1107 -0.473827 6.01378 27.3276 18.2398 -3.67322 -22.9112 0.0 0.0 -0.0 0.0 -0.0 -10.6597 2.76184 8.62852 3.37174 0.153461 0.494519 37.3009 32.5702 5.83437 -5.2199 0.0 0.0 0.0 0.0 0.0 
3435.01330142 706.526 -1527.01145169 -2.87154214195 69.5966379476 -3.41143724774 1.62316 0.678701 3.0221 1.62811 0.485114 3.05911 1.65462 -0.0791405 3.09629 1.64148 0.41062 3.06999 -11.5116 19.5541 1.49117 -12.2659 36.1204 7.18986 -0.0 0.0 -0.0 -3.28635 21.1778 -2.26106 -31.3453 -16.987 71.706 0.91354 -24.3484 0.197088 -38.0913 -2.75049 3.92023 -1.28971 2.91597 -7.33218 -0.0 0.0 -0.0 14.9022 27.3899 -29.9419 14.7343 24.9364 -68.9368 0.590813 16.3134 -0.0846824 3.25517 -0.103264 0.402898 0.936665 -2.62242 -7.32847 0.0 0.0 0.0 25.2553 5.72277 -6.1239 -34.9107 -0.175125 5.27284 27.6766 19.9181 -3.73791 -23.4596 0.0 0.0 -0.0 0.0 -0.0 -9.25146 2.65673 8.12667 1.99567 0.0873104 0.293771 34.3083 32.2348 5.47607 -4.64325 0.0 0.0 0.0 0.0 0.0 
3434.6874928 706.526 -1526.13432114 -2.9209286553 69.9562543995 -3.35880633453 1.62316 0.678701 3.0221 1.62811 0.485114 3.05911 1.65462 -0.0791405 3.09629 1.64148 0.41062 3.06999 -11.5116 19.5541 1.49117 -12.2659 36.1204 7.18986 -0.0 0.0 -0.0 -3.28635 21.1778 -2.26106 -31.3453 -16.987 71.706 0.91354 -24.3484 0.197088 -38.0913 -2.75049 3.92023 -1.28971 2.91597 -7.33218 -0.0 0.0 -0.0 14.9022 27.3899 -29.9419 14.7343 24.9364 -68.9368 0.590813 16.3134 -0.0846824 3.25517 -0.103264 0.402898 0.936665 -2.62242 -7.32847 0.0 0.0 0.0 25.2553 5.72277 -6.1239 -34.9107 -0.175125 5.27284 27.6766 19.9181 -3.73791 -23.4596 0.0 0.0 -0.0 0.0 -0.0 -9.25146 2.65673 8.12667 1.99567 0.0873104 0.293771 34.3083 32.2348 5.47607 -4.64325 0.0 0.0 0.0 0.0 0.0 
3427.96478671 695.161 -1524.70605626 -2.81062536182 69.5685614794 -3.10710532703 1.53588 0.974956 2.99037 1.54051 0.782786 3.04628 1.58312 0.212433 3.13798 1.57008 0.705119 3.06517 -10.1724 19.9534 1.97553 -10.7094 36.3594 7.27156 -0.0 0.0 -0.0 -3.13977 20.7828 -2.12878 -32.1592 -16.7539 71.2445 0.770055 -20.8799 0.141889 -38.3963 -2.78225 3.94312 -0.746473 3.98619 -3.25247 -0.0 0.0 -0.0 14.437 27.7492 -28.7961 18.3209 25.5992 -69.8054 0.695102 19.0003 -0.116324 4.10059 -0.126322 0.508429 1.50456 2.55665 -9.06246 0.0 0.0 0.0 27.1915 4.06554 -8.52926 -26.0136 0.175998 3.95399 22.0021 20.8864 -3.0658 -26.5453 0.0 0.0 -0.0 0.0 -0.0 -9.46194 1.99059 8.29289 0.861174 0.0364186 0.127132 37.6779 29.4788 5.64887 -4.8654 0.0 0.0 0.0 0.0 0.0 
3423.25451093 696.896 -1524.83706351 -4.22825318194 70.3837629333 -1.50301137057 1.56535 1.10219 2.95897 1.56976 0.911763 3.02303 1.61891 0.345646 3.13845 1.60615 0.836739 3.04463 -10.0252 19.6017 0.921366 -10.5447 36.3635 6.1083 -0.0 0.0 -0.0 -2.96722 20.699 -1.89406 -33.3865 -16.8616 71.3366 0.648421 -17.8076 0.101585 -38.5424 -2.79749 3.95402 -0.384303 3.89288 -0.903135 -0.0 0.0 -0.0 14.5667 27.6143 -29.1195 20.9267 26.3394 -69.727 0.792115 21.4245 -0.149849 4.80817 -0.144421 0.597003 1.26449 3.37647 -7.09379 0.0 0.0 0.0 26.5946 1.88511 -8.66762 -20.8526 0.284529 3.16972 20.826 23.1176 -2.94731 -27.7681 0.0 0.0 -0.0 0.0 -0.0 -9.33853 3.54615 8.38056 -0.029958 -0.0012326 -0.00443209 35.6739 28.3349 5.36428 -6.64304 0.0 0.0 0.0 0.0 0.0 
3412.01881374 693.615 -1521.61743117 -5.92165447436 71.4601158816 0.51726746982 1.59751 1.20152 2.89384 1.6016 1.01503 2.96435 1.65518 0.459989 3.09925 1.64302 0.943469 2.98788 -10.2465 20.1591 2.46685 -10.7929 36.4397 7.82711 -0.0 0.0 -0.0 -3.05956 20.759 -2.01673 -34.0945 -16.6537 71.1608 0.571922 -15.8183 0.0794544 -38.4128 -2.78397 3.94435 -0.336481 4.22441 -0.447003 -0.0 0.0 -0.0 14.4626 27.6147 -28.8752 22.7252 26.5837 -68.9715 0.857473 23.014 -0.174567 4.56982 -0.138446 0.567142 1.48041 4.62387 -8.04108 0.0 0.0 0.0 27.1656 2.79217 -9.28573 -16.9761 0.319382 2.57605 18.988 24.1743 -2.72256 -29.5897 0.0 0.0 -0.0 0.0 -0.0 -9.80054 3.75058 8.58446 -0.670801 -0.0270392 -0.0993906 36.8806 27.3527 5.43117 -4.61931 0.0 0.0 0.0 0.0 0.0 
3399.16693686 692.446 -1512.49925154 -5.86618105681 72.7119040043 0.593557108371 1.55179 1.07792 2.88239 1.55597 0.8924 2.94507 1.60286 0.339922 3.05838 1.59074 0.818457 2.96645 -9.76402 19.6494 0.845302 -10.2433 36.4648 5.95223 -0.0 0.0 -0.0 -3.22468 21.5531 -2.09536 -36.1665 -16.8008 71.8849 0.596312 -16.4571 0.0862337 -39.1642 -2.86271 3.99998 -0.0368505 4.30591 1.5605 -0.0 0.0 -0.0 14.0246 26.6519 -27.9785 24.1448 26.8343 -68.7987 1.07675 28.0744 -0.269215 5.19144 -0.153767 0.64507 1.77453 8.33057 -8.47432 0.0 0.0 0.0 25.1772 1.97965 -8.48758 -9.97127 0.280383 1.50266 18.6629 24.8842 -2.68977 -30.4088 0.0 0.0 -0.0 0.0 -0.0 -9.75699 3.65584 8.55344 -1.79185 -0.0696205 -0.266163 36.8352 26.1526 5.35637 -6.53865 0.0 0.0 0.0 0.0 0.0 
3398.89105025 692.446 -1511.19560435 -6.00959908229 73.13548583 0.743588343798 1.55179 1.07792 2.88239 1.55597 0.8924 2.94507 1.60286 0.339922 3.05838 1.59074 0.818457 2.96645 -9.76402 19.6494 0.845302 -10.2433 36.4648 5.95223 -0.0 0.0 -0.0 -3.22468 21.5531 -2.09536 -36.1665 -16.8008 71.8849 0.596312 -16.4571 0.0862337 -39.1642 -2.86271 3.99998 -0.0368505 4.30591 1.5605 -0.0 0.0 -0.0 14.0246 26.6519 -27.9785 24.1448 26.8343 -68.7987 1.07675 28.0744 -0.269215 5.19144 -0.153767 0.64507 1.77453 8.33057 -8.47432 0.0 0.0 0.0 25.1772 1.97965 -8.48758 -9.97127 0.280383 1.50266 18.6629 24.8842 -2.68977 -30.4088 0.0 0.0 -0.0 0.0 -0.0 -9.75699 3.65584 8.55344 -1.79185 -0.0696205 -0.266163 36.8352 26.1526 5.35637 -6.53865 0.0 0.0 0.0 0.0 0.0 
